<svg width="159" height="146" viewBox="0 0 159 146" fill="none" xmlns="http://www.w3.org/2000/svg">
<path d="M84.9835 58.8878C90.923 59.7522 95.5986 55.9317 102.838 56.4717C110.077 57.0117 111.161 59.0383 119.452 58.5823C122.061 58.4389 124.671 58.4778 127.137 58.5726C130.739 58.4947 134.137 61.8148 134.113 65.2727C134.137 69.0472 133.851 72.1682 134.13 74.1352C134.618 78.1326 132.155 78.2617 131.682 83.7072C131.062 89.2043 129.642 92.4138 126.979 96.469C124.685 100.842 115.529 112.008 111.623 115.722C108.06 119.954 101.726 121.415 98.3458 122.407C97.2938 122.73 96.4147 122.896 95.7205 122.973C95.426 123.005 95.2437 122.9 95.1859 122.75C95.1859 122.75 95.1858 122.75 95.1858 122.75C95.1139 122.563 95.2335 122.307 95.5604 122.15C97.138 121.393 99.3935 120.075 101.681 117.997C105.744 114.03 107.232 115.084 112.293 109.534C117.013 103.701 118.33 99.4925 122.474 92.0073C126.183 84.0466 123.305 81.4617 125.975 69.6485C126.246 68.1912 126.381 66.8904 126.412 65.7069C126.479 65.923 126.656 66.1604 126.797 66.2531C126.938 66.356 127.052 66.3935 127.137 66.4305C121.1 66.7748 117.836 68.9574 108.502 69.3376C95.6646 69.8606 79.4595 67.6906 71.7208 67.8705C63.982 68.0505 53.5882 68.5086 42.6176 67.9896C32.3472 67.5037 19.8224 68.6209 8.32946 68.0057C8.83379 67.9666 9.41639 67.7092 9.83352 67.1774C10.1057 66.8388 10.288 66.368 10.3105 65.9744C7.1683 76.5567 9.60672 92.1491 12.9065 98.6817C16.074 105.591 17.3388 107.335 23.0005 112.057C26.3456 114.733 30.9262 118.251 34.9375 121.497C36.9828 123.132 36.1491 123.521 33.6727 122.586C30.0598 121.192 27.6268 119.144 25.4948 118.691C21.2595 117.737 19.2374 117.03 16.327 112.584C13.5747 108.13 10.3387 107.481 8.83738 104.677C7.77426 101.708 7.43471 101.847 2.29571 87.1549C-0.524253 77.2213 -0.203743 69.8033 0.437654 64.276C1.05691 59.9708 5.18811 57.4676 8.32946 57.5458C9.34899 57.5011 10.2892 57.4599 11.1668 57.4191C16.6698 57.1634 28.1604 58.3631 37.1288 57.9301C46.0973 57.4971 64.3299 57.894 71.6797 57.185C79.0293 56.4762 79.0443 58.0234 84.9835 58.8878Z" fill="#C5937A"/>
<path d="M2.31478 123.179H35.7491H130.561C130.997 123.179 131.345 123.544 131.324 123.979C130.925 132.491 123.844 139.152 115.324 139.03L15.916 137.604C8.20022 137.494 2.00342 131.207 2.00342 123.491C2.00342 123.319 2.14282 123.179 2.31478 123.179Z" fill="#F7F1EE"/>
<path d="M114.637 143.051C108.566 142.1 103.722 145.851 96.3146 145.205C88.9074 144.559 87.8259 142.517 79.3273 142.851C70.8292 143.185 62.3527 141.677 58.5596 142.455C54.7668 143.234 54.4039 140.71 49.0266 141.193C43.6496 141.675 40.4003 141.299 35.7164 140.414C32.0511 139.721 22.4268 139.015 15.8933 139.187C13.8729 139.235 12.1109 138.949 10.8082 138.724C4.27561 137.718 1.26144 129.862 1.39542 126.243C1.3091 125.09 1.43728 124.176 1.61264 123.491C1.61889 123.438 1.63112 123.387 1.6486 123.338C1.76684 123.031 2.02733 122.972 2.14933 123.004C2.282 123.037 2.31545 123.131 2.31478 123.209C2.31478 123.209 2.31478 123.209 2.31478 123.209C2.31362 123.3 2.2793 123.396 2.30541 123.469C2.32455 123.542 2.41886 123.564 2.44592 123.491C2.44999 123.517 2.45314 123.544 2.45531 123.573C2.56619 125.28 3.33241 127.943 5.43684 129.97C7.37974 131.773 8.3992 132.563 9.65307 133.561C10.9029 134.456 12.5966 135.656 15.9469 135.445C16.0135 135.44 16.0806 135.436 16.1482 135.431C24.1028 134.849 28.8958 133.528 38.2308 134.561C47.5655 135.593 49.7665 131.864 62.9311 134.184C76.0955 136.504 77.5406 132.592 90.6972 132.257C98.5719 132.057 107.668 132.839 115.403 133.486C118.821 133.937 121.948 132.396 123.374 130.743C124.922 129.035 126.056 126.542 126.096 123.734C125.915 126.169 128.063 128.482 130.561 128.435C125.203 128.525 119.346 128.528 113.32 128.25C102.082 127.731 88.2092 129.041 75.8042 128.115C63.3993 127.189 45.8615 126.019 37.7592 125.235C37.0442 125.166 36.3769 125.102 35.7491 125.042C29.2633 124.425 26.9942 124.317 19.8839 124.754C15.4012 125.029 9.22589 124.77 4.00974 123.757C1.38464 123.248 1.97949 122.538 4.62174 122.199C8.48557 121.702 11.6574 122.034 13.6482 121.147C17.6264 119.376 19.3172 118.696 24.3393 119.727C29.3612 120.758 31.7275 118.415 34.655 118.685C35.061 118.722 35.4098 118.781 35.7491 118.852C37.8564 119.291 39.5988 120.189 52.4198 119.272C67.3055 118.207 75.4658 117.935 81.1029 117.679C86.74 117.424 98.5106 118.623 107.698 118.19C113.335 117.925 122.546 117.971 130.561 117.883C133.931 117.802 136.862 120.924 136.629 124.228C136.448 130.37 133.455 135.374 131.122 138.101C127.862 141.878 125.124 142.76 122.952 143.224C120.715 143.606 118.701 143.591 115.264 143.156C115.063 143.12 114.854 143.085 114.637 143.051Z" fill="#C5937A"/>
<path d="M154.875 94.1239C153.133 95.1667 154.946 98.9214 152.565 100.257C150.246 101.416 148.819 99.9223 146.911 101.52C144.827 103.159 142.029 102.655 141.322 103.752C140.55 104.865 139.641 102.515 138.456 103.396C137.214 104.279 136.122 104.159 134.833 103.551C133.447 102.989 129.755 102.701 128.394 103.762C127.088 104.851 125.495 103.149 124.548 102.743C124.253 102.617 124.019 102.441 123.84 102.258C123.764 102.18 123.729 102.017 123.729 101.857C123.729 101.856 123.729 101.856 123.729 101.856C123.729 101.656 123.783 101.46 123.879 101.434C124.346 101.311 125.039 100.981 125.8 100.235C127.207 98.834 127.35 100.337 129.319 99.4964C131.18 98.6395 132.145 97.1352 134.391 97.65C136.816 98.0768 136.308 94.3945 139.657 95.5203C143.214 96.4373 142.002 92.6373 143.536 90.986C144.997 89.4131 148.084 88.6529 148.369 87.1971C148.626 85.9057 148.405 84.3389 148.54 82.4008C148.652 80.2937 146.387 78.6601 145.563 76.4908C144.786 74.1413 142.128 71.3485 140.508 70.2361C138.944 69.0782 138.355 68.8423 136.594 69.3455C135.584 69.6546 134.255 69.5832 132.744 68.9711C131.974 68.6709 131.87 67.9552 132.472 67.4286C133.358 66.6674 134.252 66.8518 134.691 65.8969C135.574 64.0013 136.244 63.2542 137.772 64.3184C139.21 65.4077 140.201 63.213 141.132 63.6624C142.018 64.2203 141.674 65.1236 146.261 66.0847C150.902 67.3614 152.951 69.442 154.318 70.6644C155.767 71.9762 156.764 75.8537 157.953 78.6085C159.508 81.3948 158.97 88.0045 158.458 90.7163C158.14 93.5235 156.611 92.9568 154.875 94.1239Z" fill="#C5937A"/>
<path d="M47.9623 24.3557C48.2735 22.6105 44.1957 21.9853 44.5885 19.4878C45.0876 17.1442 47.1306 17.0532 47.0465 14.7713C47.0334 12.3943 49.133 10.8544 48.7297 9.69446C48.3564 8.47698 50.6718 9.44728 50.7472 8.07893C50.851 6.69 51.559 6.15647 52.8301 5.69878C54.0933 5.19533 56.5438 3.14007 56.6017 1.61644C56.65 0.0433114 58.8849 0.27254 59.7265 0.061024C59.9979 -0.0155184 60.2578 -0.0125649 60.4867 0.0288376C60.5837 0.0464253 60.7124 0.149903 60.8191 0.269974C60.8192 0.270052 60.8193 0.27013 60.8194 0.270208C60.9522 0.419847 61.0516 0.594581 61.0121 0.663868C60.8188 1.00164 60.6215 1.62522 60.6778 2.5942C60.8158 4.38574 59.6387 3.43811 59.1117 5.11935C58.6173 6.8102 59.2165 8.31314 57.5106 9.30758C55.7882 10.4348 58.9095 12.4439 56.1059 13.6728C53.3067 15.2037 57.0287 16.6919 57.4405 18.2216C57.6695 19.0246 57.3375 19.8044 57.1276 20.7116C56.9056 21.5962 56.8566 22.5969 57.2295 23.0224C57.7254 23.5969 58.4855 24.184 59.2718 24.9574C59.9143 25.5867 60.5005 26.294 60.995 27.1259C62.4523 29.5504 65.7688 32.3164 65.7319 36.2832C65.8598 40.1784 63.6363 44.8191 62.0397 46.1666C60.4907 47.6271 60.1502 47.8113 59.4458 49.575C59.0321 50.5723 57.7766 51.5323 56.2248 51.4889C55.4497 51.4586 55.1436 50.8007 55.3263 50.209C55.5801 49.3457 56.2404 49.1328 55.8473 48.2513C55.0316 46.504 54.5903 45.9788 55.9171 45.888C57.2716 45.7225 55.4282 44.1864 55.8446 43.9577C56.2116 43.7248 57.7477 44.1541 57.2191 41.6768C56.4877 39.3969 55.8246 38.6787 55.3937 38.031C54.9858 37.4987 55.2994 35.3955 53.9701 34.4197C53.4029 34.0026 52.7304 33.2654 51.9267 32.5394C50.4308 31.1737 49.1025 29.4889 48.1407 28.6414C46.3842 27.0373 47.7511 26.2149 47.9623 24.3557Z" fill="#C5937A"/>
<path d="M72.8214 24.131C73.0407 22.8783 69.879 22.7226 70.0439 20.7833C70.3128 18.9191 71.8586 18.7624 71.8088 16.925C71.845 14.9493 73.6597 13.8373 73.4845 12.9083C73.3567 11.9074 74.9984 12.9199 75.2384 11.8997C75.5149 10.8613 76.1392 10.5696 77.1522 10.4538C78.1688 10.298 80.2787 9.27308 80.5301 8.17044C80.7845 7.03474 82.3507 7.61062 82.9899 7.58079C83.1927 7.56876 83.3816 7.60983 83.5455 7.67337C83.615 7.70033 83.6989 7.79548 83.7647 7.90009C83.7647 7.90015 83.7648 7.90022 83.7648 7.90029C83.8467 8.03058 83.9007 8.17536 83.8633 8.22196C83.6817 8.44815 83.4636 8.88203 83.3707 9.61249C83.2183 10.9681 82.4795 10.0695 81.8447 11.2035C81.2273 12.3496 81.4425 13.5472 80.0894 13.9213C78.6929 14.4174 80.7968 16.3216 78.7359 16.6377C76.6004 17.325 79.4589 18.5853 79.8521 19.2695C80.0564 19.6796 79.8251 20.2275 79.721 20.9768C79.6095 21.71 79.6102 22.5332 79.9193 22.9172C80.3793 23.4896 81.1099 24.1389 81.7586 25.0312C82.0328 25.3954 82.2664 25.7667 82.4801 26.1936C83.3485 27.9568 85.6568 29.5849 85.9025 32.2855C86.2908 34.8704 85.2623 38.9152 83.8913 40.0029C82.6642 41.154 82.3893 41.2321 81.6884 42.5008C81.2684 43.2165 80.2121 43.7486 79.0925 43.4879C78.5286 43.3571 78.3699 42.823 78.5675 42.4062C78.8484 41.7976 79.3584 41.7385 79.1512 41.0351C78.7124 39.636 78.3866 39.2323 79.3179 39.3866C80.2929 39.4598 78.916 38.2383 79.1726 38.1973C79.3127 38.1515 79.6239 38.2441 79.8711 38.1389C80.1082 38.0442 80.3199 37.6906 79.9533 37.0028C79.1656 35.7022 78.5717 35.0562 78.1628 34.5531C77.7669 34.102 77.8537 32.3711 76.8234 31.5438C76.452 31.247 76.0323 30.7577 75.557 30.2287C74.5525 29.1075 73.5926 27.7204 72.8465 27.1051C71.6268 26.0641 72.6686 25.4571 72.8214 24.131Z" fill="#C5937A"/>
</svg>
