<svg width="81" height="17" viewBox="0 0 81 17" fill="none" xmlns="http://www.w3.org/2000/svg">
<path d="M51 17H48.3691L47.0762 13.1631H39.9092L38.6318 17H36L41.6748 0H45.3252L51 17ZM41.3994 6.83691C41.1958 6.83692 41.0274 6.98348 41.0566 7.16113C41.1814 7.91744 41.7371 8.55016 42.4961 8.86133H41.4414C41.238 8.86147 41.0734 9.00715 41.0732 9.18652V9.51172C41.0732 9.69119 41.2379 9.83678 41.4414 9.83691H45.6807C45.8842 9.83689 46.0498 9.69126 46.0498 9.51172V9.18652C46.0497 9.00708 45.8842 8.86136 45.6807 8.86133H44.626C45.0042 8.70632 45.3321 8.47199 45.5811 8.18164C45.7243 8.23486 45.89 8.26558 46.0664 8.26562C46.6114 8.2656 47.0536 7.97557 47.0537 7.61816C47.0537 7.26071 46.6115 6.97072 46.0664 6.9707C46.0498 6.97071 46.033 6.97115 46.0166 6.97168C45.9553 6.89057 45.8462 6.837 45.7236 6.83691H41.3994ZM46.0664 7.23828C46.2799 7.23829 46.4618 7.29566 46.583 7.375C46.7042 7.45449 46.75 7.54363 46.75 7.61816C46.75 7.69268 46.7042 7.78089 46.583 7.86035C46.4618 7.93981 46.2801 7.99706 46.0664 7.99707C45.951 7.99703 45.8451 7.98003 45.7529 7.95215C45.8954 7.73489 45.998 7.49484 46.0508 7.23926C46.056 7.23919 46.0612 7.23828 46.0664 7.23828Z" fill="#1B1917"/>
<path d="M78.5811 17C78.1282 17 77.7193 16.9293 77.3541 16.7879C76.9918 16.6438 76.6924 16.4396 76.4557 16.1755C76.222 15.9086 76.0701 15.5924 76 15.2268L76.9553 15.0947C77.0517 15.447 77.2533 15.7218 77.56 15.9193C77.8668 16.1141 78.2247 16.2115 78.6337 16.2115C78.8878 16.2115 79.1215 16.1755 79.3348 16.1034C79.5481 16.0287 79.719 15.9233 79.8475 15.7872C79.979 15.6484 80.0447 15.483 80.0447 15.2909C80.0447 15.1868 80.0243 15.0947 79.9834 15.0147C79.9454 14.9346 79.8913 14.8652 79.8212 14.8065C79.754 14.7452 79.6708 14.6931 79.5714 14.6504C79.475 14.6051 79.3684 14.5664 79.2515 14.5344L77.6345 14.0981C77.4768 14.0554 77.3161 14.0007 77.1525 13.934C76.9889 13.8646 76.8384 13.7752 76.7011 13.6658C76.5668 13.5537 76.4572 13.4163 76.3725 13.2535C76.2878 13.0881 76.2454 12.8879 76.2454 12.6531C76.2454 12.2982 76.3447 11.998 76.5434 11.7525C76.745 11.5043 77.0167 11.3175 77.3585 11.1921C77.7003 11.064 78.083 11 78.5066 11C78.9331 11.0053 79.3143 11.0747 79.6503 11.2081C79.9892 11.3416 80.2696 11.5337 80.4917 11.7845C80.7166 12.0327 80.8715 12.3342 80.9562 12.6891L79.9746 12.8412C79.9308 12.6251 79.8373 12.4396 79.6941 12.2849C79.551 12.1274 79.3757 12.0073 79.1683 11.9246C78.9609 11.8392 78.7359 11.7952 78.4934 11.7925C78.2597 11.7872 78.045 11.8192 77.8493 11.8886C77.6564 11.958 77.5016 12.0554 77.3848 12.1808C77.2708 12.3062 77.2138 12.4503 77.2138 12.6131C77.2138 12.7732 77.265 12.9026 77.3672 13.0013C77.4695 13.1001 77.5951 13.1788 77.7441 13.2375C77.896 13.2935 78.0465 13.3402 78.1954 13.3776L79.3611 13.6778C79.5072 13.7151 79.6722 13.7658 79.8563 13.8299C80.0432 13.8913 80.2229 13.978 80.3953 14.0901C80.5706 14.2021 80.7152 14.3516 80.8291 14.5384C80.943 14.7225 81 14.9546 81 15.2348C81 15.5257 80.9357 15.7819 80.8072 16.0033C80.6786 16.2221 80.5019 16.4063 80.2769 16.5557C80.0549 16.7025 79.7978 16.8132 79.5057 16.8879C79.2136 16.9626 78.9053 17 78.5811 17Z" fill="#1B1917"/>
<path d="M71 17L72.8917 11H74.1083L76 17H75.1229L73.3808 11.525H73.599L71.8771 17H71ZM71.9822 15.6458V14.8292H75.0218V15.6458H71.9822Z" fill="#1B1917"/>
<path d="M68.0523 17V11.8208H66V11H71V11.8208H68.9477V17H68.0523Z" fill="#1B1917"/>
<path d="M62 17V11H62.7471V13.8L64.9026 11H65.832L63.555 13.9292L66 17H65.042L62.7471 14.1333V17H62Z" fill="#1B1917"/>
<path d="M57 17V11H61V11.8208H57.9087V13.5042H60.4783V14.325H57.9087V16.1792H61V17H57Z" fill="#1B1917"/>
<path d="M53 17V11H55.1541C55.5017 11 55.7935 11.0778 56.0295 11.2333C56.2655 11.3889 56.4431 11.5903 56.5623 11.8375C56.6816 12.0819 56.7412 12.3403 56.7412 12.6125C56.7412 12.9431 56.6664 13.2264 56.5167 13.4625C56.3695 13.6986 56.1703 13.8597 55.9191 13.9458L55.9115 13.7417C56.2617 13.8361 56.5306 14.0208 56.7184 14.2958C56.9061 14.5681 57 14.8861 57 15.25C57 15.6028 56.9353 15.9097 56.8059 16.1708C56.679 16.4319 56.4925 16.6361 56.2464 16.7833C56.0029 16.9278 55.7073 17 55.3597 17H53ZM53.8069 16.1708H55.2379C55.418 16.1708 55.5791 16.1333 55.7212 16.0583C55.8658 15.9833 55.9788 15.8764 56.0599 15.7375C56.1437 15.5958 56.1855 15.4278 56.1855 15.2333C56.1855 15.0528 56.1487 14.8903 56.0752 14.7458C56.0041 14.5986 55.9001 14.4833 55.7631 14.4C55.6286 14.3139 55.47 14.2708 55.2873 14.2708H53.8069V16.1708ZM53.8069 13.45H55.1427C55.2899 13.45 55.4218 13.4181 55.5385 13.3542C55.6578 13.2875 55.7517 13.1931 55.8202 13.0708C55.8912 12.9458 55.9267 12.7958 55.9267 12.6208C55.9267 12.3875 55.8557 12.1958 55.7136 12.0458C55.5715 11.8958 55.3812 11.8208 55.1427 11.8208H53.8069V13.45Z" fill="#1B1917"/>
<path d="M25 17V0H27.4274V14.6743H35V17H25Z" fill="#1B1917"/>
<path d="M13 17V0H15.4274V14.6743H23V17H13Z" fill="#1B1917"/>
<path d="M0 17V0H11V2.32569H2.49891V7.09514H8.96739V9.42083H2.49891V14.6743H11V17H0Z" fill="#1B1917"/>
</svg>
