<svg width="512" height="512" viewBox="0 0 512 512" fill="none" xmlns="http://www.w3.org/2000/svg">
<path d="M268.717 224.005C282.535 226.016 293.413 217.127 310.256 218.383C327.098 219.64 329.62 224.355 348.909 223.294C354.979 222.96 361.051 223.051 366.789 223.271C375.169 223.09 383.074 230.814 383.019 238.859C383.074 247.641 382.409 254.902 383.058 259.478C384.193 268.778 378.463 269.079 377.363 281.748C375.92 294.537 372.617 302.004 366.421 311.439C361.084 321.613 339.782 347.591 330.695 356.231C322.405 366.077 307.669 369.476 299.805 371.784C297.357 372.536 295.312 372.922 293.697 373.101C293.012 373.176 292.588 372.931 292.453 372.582C292.286 372.147 292.564 371.552 293.324 371.186C296.995 369.425 302.242 366.359 307.564 361.524C317.017 352.295 320.479 354.747 332.253 341.835C343.235 328.264 346.299 318.473 355.94 301.058C364.569 282.537 357.873 276.524 364.085 249.04C364.716 245.649 365.03 242.623 365.102 239.87C365.258 240.372 365.67 240.925 365.998 241.14C366.326 241.38 366.591 241.467 366.789 241.553C352.743 242.354 345.149 247.432 323.434 248.316C293.567 249.533 255.865 244.485 237.861 244.903C219.856 245.322 195.675 246.388 170.151 245.18C146.257 244.05 117.117 246.649 90.3785 245.218C91.5518 245.127 92.9073 244.528 93.8777 243.291C94.511 242.503 94.9351 241.408 94.9874 240.492C87.677 265.112 93.3501 301.388 101.027 316.587C108.396 332.661 111.339 336.719 124.511 347.705C132.294 353.931 142.951 362.115 152.283 369.667C157.042 373.471 155.102 374.376 149.34 372.201C140.935 368.958 135.274 364.193 130.314 363.139C120.461 360.919 115.756 359.275 108.985 348.931C102.582 338.568 95.0531 337.058 91.5602 330.535C89.0868 323.627 88.2968 323.951 76.3407 289.769C69.78 266.658 70.5257 249.4 72.0179 236.54C73.4586 226.524 83.07 220.7 90.3785 220.882C92.7505 220.778 94.9379 220.683 96.9797 220.588C109.783 219.993 136.516 222.784 157.381 221.776C178.247 220.769 220.666 221.693 237.765 220.043C254.864 218.394 254.899 221.994 268.717 224.005Z" fill="#C5937A"/>
<path d="M76.3855 373.58H154.172H374.755C375.769 373.58 376.579 374.429 376.53 375.442C375.602 395.245 359.128 410.742 339.306 410.458L108.029 407.141C90.0782 406.885 75.6611 392.258 75.6611 374.306C75.6611 373.906 75.9855 373.58 76.3855 373.58Z" fill="#F7F1EE"/>
<path d="M337.707 419.814C323.582 417.601 312.312 426.328 295.079 424.825C277.846 423.322 275.33 418.571 255.557 419.348C235.786 420.125 216.065 416.617 207.24 418.427C198.416 420.239 197.572 414.367 185.062 415.491C172.552 416.612 164.992 415.737 154.095 413.678C145.567 412.066 123.176 410.424 107.976 410.824C103.275 410.935 99.1758 410.27 96.145 409.747C80.9467 407.406 73.9342 389.129 74.2459 380.709C74.045 378.027 74.3433 375.9 74.7512 374.306C74.7658 374.183 74.7942 374.065 74.8349 373.951C75.11 373.236 75.716 373.099 75.9999 373.173C76.3085 373.25 76.3864 373.469 76.3848 373.65C76.3821 373.862 76.3022 374.085 76.363 374.255C76.4075 374.425 76.6269 374.476 76.6899 374.306C76.6994 374.367 76.7067 374.43 76.7117 374.497C76.9697 378.469 78.7523 384.664 83.6484 389.38C88.1686 393.575 90.5404 395.413 93.4576 397.735C96.3654 399.817 100.306 402.609 108.1 402.118C108.255 402.106 108.411 402.097 108.569 402.085C127.075 400.731 138.227 397.658 159.945 400.061C181.662 402.462 186.783 393.787 217.411 399.184C248.038 404.582 251.4 395.48 282.01 394.701C300.331 394.236 321.493 396.055 339.489 397.56C347.441 398.609 354.716 395.024 358.034 391.179C361.635 387.205 364.273 381.405 364.366 374.872C363.945 380.537 368.943 385.918 374.754 385.809C362.289 386.018 348.662 386.025 334.643 385.378C308.497 384.171 276.221 387.219 247.361 385.064C218.5 382.91 177.698 380.188 158.848 378.364C157.184 378.203 155.632 378.055 154.171 377.915C139.082 376.479 133.802 376.228 117.26 377.245C106.831 377.885 92.4637 377.282 80.3282 374.925C74.2208 373.741 75.6047 372.089 81.752 371.301C90.7414 370.144 98.1207 370.917 102.752 368.853C112.008 364.733 115.942 363.151 127.626 365.549C139.309 367.948 144.815 362.497 151.625 363.125C152.57 363.211 153.382 363.348 154.171 363.514C159.074 364.535 163.127 366.624 192.956 364.491C227.588 362.013 246.573 361.38 259.688 360.785C272.803 360.191 300.188 362.981 321.563 361.974C334.677 361.357 356.107 361.464 374.754 361.259C382.595 361.071 389.414 368.334 388.872 376.021C388.451 390.311 381.487 401.953 376.06 408.297C368.475 417.084 362.105 419.137 357.052 420.216C351.847 421.105 347.162 421.07 339.165 420.058C338.698 419.974 338.211 419.893 337.707 419.814Z" fill="#C5937A"/>
<path d="M431.322 305.983C427.269 308.409 431.487 317.144 425.948 320.252C420.553 322.948 417.233 319.473 412.794 323.19C407.945 327.003 401.436 325.831 399.791 328.383C397.995 330.972 395.88 325.505 393.123 327.555C390.233 329.609 387.693 329.33 384.694 327.915C381.469 326.608 372.88 325.938 369.713 328.406C366.675 330.94 362.969 326.98 360.765 326.035C360.079 325.742 359.535 325.333 359.118 324.907C358.941 324.726 358.86 324.346 358.86 323.974C358.86 323.509 358.985 323.05 359.209 322.99C360.295 322.704 361.908 321.936 363.678 320.2C366.952 316.941 367.284 320.438 371.865 318.482C376.195 316.488 378.44 312.989 383.665 314.186C389.307 315.179 388.125 306.612 395.917 309.232C404.192 311.365 401.373 302.524 404.942 298.682C408.341 295.023 415.523 293.254 416.186 289.867C416.784 286.863 416.269 283.218 416.584 278.709C416.844 273.806 411.575 270.006 409.657 264.959C407.85 259.493 401.666 252.995 397.897 250.407C394.258 247.713 392.888 247.164 388.791 248.335C386.441 249.054 383.349 248.888 379.834 247.464C378.042 246.765 377.8 245.1 379.201 243.875C381.262 242.104 383.342 242.533 384.363 240.312C386.418 235.901 387.976 234.163 391.531 236.639C394.877 239.173 397.183 234.067 399.349 235.113C401.41 236.411 400.61 238.513 411.281 240.749C422.079 243.719 426.846 248.559 430.026 251.403C433.397 254.455 435.717 263.476 438.483 269.886C442.101 276.368 440.849 291.746 439.658 298.055C438.918 304.586 435.361 303.267 431.322 305.983Z" fill="#C5937A"/>
<path d="M182.587 143.664C183.311 139.604 173.824 138.15 174.737 132.339C175.899 126.887 180.652 126.675 180.456 121.366C180.426 115.836 185.31 112.253 184.372 109.554C183.504 106.722 188.89 108.979 189.066 105.796C189.307 102.565 190.955 101.323 193.912 100.258C196.851 99.0871 202.552 94.3055 202.687 90.7607C202.799 87.1007 207.998 87.634 209.957 87.1419C210.588 86.9639 211.193 86.9707 211.725 87.0671C211.951 87.108 212.25 87.3487 212.498 87.6281C212.498 87.6279 212.499 87.6283 212.498 87.6281C212.807 87.9762 213.039 88.3833 212.947 88.5445C212.498 89.3303 212.039 90.7811 212.17 93.0355C212.491 97.2036 209.752 94.9989 208.526 98.9103C207.376 102.844 208.77 106.341 204.801 108.654C200.794 111.277 208.056 115.951 201.533 118.81C195.021 122.372 203.68 125.834 204.638 129.393C205.171 131.261 204.398 133.076 203.91 135.186C203.394 137.244 203.28 139.572 204.147 140.562C205.301 141.899 207.069 143.265 208.899 145.064C210.393 146.528 211.757 148.174 212.908 150.109C216.298 155.75 224.014 162.185 223.928 171.414C224.226 180.476 219.053 191.273 215.338 194.408C211.734 197.806 210.942 198.235 209.303 202.338C208.341 204.658 205.42 206.892 201.81 206.791C200.006 206.72 199.294 205.19 199.719 203.813C200.31 201.805 201.846 201.309 200.931 199.258C199.034 195.193 198.007 193.971 201.094 193.76C204.245 193.375 199.956 189.801 200.925 189.269C201.779 188.727 205.353 189.726 204.123 183.963C202.421 178.658 200.879 176.987 199.876 175.48C198.927 174.242 199.657 169.349 196.564 167.079C195.244 166.108 193.68 164.393 191.81 162.704C188.33 159.527 185.239 155.607 183.002 153.635C178.915 149.903 182.095 147.99 182.587 143.664Z" fill="#C5937A"/>
<path d="M240.421 143.142C240.932 140.227 233.576 139.865 233.959 135.353C234.585 131.016 238.181 130.652 238.065 126.377C238.15 121.78 242.372 119.193 241.964 117.032C241.667 114.703 245.486 117.059 246.045 114.685C246.688 112.269 248.14 111.591 250.497 111.321C252.862 110.959 257.771 108.574 258.356 106.009C258.948 103.367 262.592 104.706 264.079 104.637C264.551 104.609 264.99 104.705 265.371 104.852C265.533 104.915 265.728 105.137 265.881 105.38C265.881 105.38 265.881 105.38 265.881 105.38C266.072 105.683 266.198 106.02 266.111 106.129C265.688 106.655 265.181 107.664 264.965 109.364C264.61 112.518 262.891 110.427 261.414 113.065C259.978 115.732 260.479 118.518 257.331 119.389C254.082 120.543 258.976 124.973 254.182 125.708C249.213 127.307 255.864 130.239 256.778 131.831C257.254 132.785 256.716 134.06 256.473 135.803C256.214 137.509 256.216 139.424 256.935 140.318C258.005 141.65 259.705 143.16 261.214 145.236C261.852 146.083 262.395 146.947 262.893 147.94C264.913 152.043 270.283 155.83 270.855 162.114C271.758 168.127 269.365 177.538 266.176 180.068C263.321 182.746 262.681 182.928 261.051 185.88C260.074 187.545 257.616 188.783 255.011 188.176C253.699 187.872 253.33 186.629 253.79 185.66C254.443 184.244 255.63 184.106 255.148 182.47C254.127 179.215 253.369 178.275 255.536 178.634C257.804 178.805 254.601 175.963 255.198 175.868C255.524 175.761 256.248 175.976 256.823 175.732C257.374 175.511 257.867 174.689 257.014 173.088C255.181 170.063 253.8 168.56 252.848 167.389C251.927 166.34 252.129 162.313 249.732 160.388C248.868 159.697 247.892 158.559 246.786 157.328C244.449 154.72 242.216 151.493 240.48 150.061C237.642 147.639 240.066 146.227 240.421 143.142Z" fill="#C5937A"/>
</svg>
