<svg width="280" height="257" viewBox="0 0 280 257" fill="none" xmlns="http://www.w3.org/2000/svg">
<path d="M149.902 105.402C160.476 106.731 168.801 100.854 181.689 101.684C194.578 102.515 196.508 105.633 211.269 104.932C216.496 104.683 221.723 104.79 226.588 104.975C231.101 104.83 235.773 108.98 235.891 113.653C236.147 121.212 235.546 127.318 235.995 131.109C236.684 138.148 232.907 138.44 231.96 148.085C230.763 157.773 228.35 163.446 223.818 170.726C219.967 178.535 203.843 198.527 196.786 204.918C190.324 212.244 179.374 215.149 173.379 217.02C171.521 217.624 169.972 217.959 168.753 218.136C168.235 218.211 167.925 218.061 167.836 217.831C167.836 217.831 167.836 217.831 167.836 217.83C167.725 217.543 167.955 217.131 168.541 216.857C171.366 215.535 175.42 213.257 179.583 209.704C187.025 202.892 189.484 204.466 198.638 194.658C207.198 184.335 209.897 176.899 217.095 163.348C223.494 149.007 219.272 144.525 223.466 123.238C223.987 119.955 224.152 117.026 224.079 114.59C224.232 116.077 225.719 117.001 226.588 116.948C214.752 117.196 209.214 120.864 191.774 121.478C168.918 122.283 140.067 118.944 126.29 119.221C112.512 119.498 94.0072 120.203 74.4756 119.404C55.7167 118.637 32.7336 120.466 11.8437 119.35C13.0874 119.316 14.548 118.693 15.5013 117.41C15.9801 116.777 16.3 115.993 16.4083 115.278C10.5043 134.313 15.0076 163.329 21.2508 175.18C27.0778 187.468 29.3055 190.49 39.3781 199.072C45.2729 203.881 53.5379 210.154 60.7974 215.715C64.504 218.521 63.0885 219.056 58.7237 217.322C52.3749 214.748 47.9808 211.154 44.3503 210.199C37.0659 208.152 33.648 206.825 28.3409 199.124C23.2955 191.386 18.02 189.919 15.3493 185.033C13.4359 179.831 12.5421 180.198 3.7665 154.165C-1.23339 135.677 -0.288391 122.145 1.14233 112.249C2.04522 106.785 7.50786 103.252 11.8437 103.397C14.2825 103.304 16.4743 103.223 18.4819 103.142C28.2792 102.749 48.7365 104.594 64.7035 103.928C80.6706 103.262 113.131 103.873 126.216 102.782C139.301 101.691 139.328 104.072 149.902 105.402Z" fill="#5D5437"/>
<path d="M2.95511 218.587H62.3125H230.636C231.411 218.587 232.028 219.233 231.992 220.007C231.283 235.119 218.712 246.943 203.585 246.726L27.1019 244.196C13.4038 243.999 2.40234 232.839 2.40234 219.139C2.40234 218.834 2.64983 218.587 2.95511 218.587Z" fill="#AFA892"/>
<path d="M202.379 252.912C191.598 251.427 183.011 257.182 169.859 256.163C156.707 255.143 154.78 251.998 139.694 252.483C124.608 252.968 109.555 250.619 102.824 251.804C96.0928 252.989 95.4399 249.105 85.8953 249.829C76.3512 250.552 70.5814 249.964 62.2632 248.585C55.7538 247.507 38.6654 246.389 27.067 246.631C23.5276 246.699 20.4496 246.168 18.1909 245.733C6.91764 243.809 1.41864 230.4 1.52339 223.989C1.344 221.962 1.53163 220.352 1.80115 219.139C1.81076 219.053 1.8302 218.968 1.85832 218.888C2.04844 218.382 2.47433 218.276 2.67682 218.321C2.89654 218.367 2.95621 218.512 2.95511 218.632C2.95511 218.632 2.95511 218.632 2.95511 218.632C2.95345 218.772 2.8897 218.919 2.91155 219.037C2.9236 219.158 3.04181 219.213 3.08311 219.139C3.08937 219.186 3.09424 219.235 3.09762 219.286C3.26859 222.332 4.53932 227.082 8.16923 230.843C11.5289 234.2 13.4141 235.665 15.7075 237.446C18.0032 239.048 21.0719 241.166 27.1496 240.874C27.2677 240.867 27.3868 240.86 27.5069 240.852C41.6265 239.985 50.1313 237.969 66.7069 239.589C83.2824 241.21 87.1771 235.479 110.556 239.094C133.935 242.708 136.487 236.693 159.843 236.223C173.822 235.942 189.973 237.177 203.707 238.197C210.215 238.918 216.023 235.914 218.723 232.827C221.655 229.633 223.844 224.939 223.949 219.629C223.677 223.277 226.894 226.742 230.636 226.673C221.124 226.811 210.727 226.815 200.028 226.387C180.077 225.589 155.447 227.604 133.424 226.18C111.401 224.755 80.2655 222.955 65.8811 221.75C64.6117 221.643 63.4271 221.544 62.3125 221.452C50.7981 220.504 46.7696 220.337 34.1464 221.009C26.1881 221.432 15.2247 221.033 5.96426 219.475C1.3038 218.692 2.35986 217.6 7.05077 217.078C13.9104 216.314 19.5414 216.825 23.0759 215.461C30.1385 212.735 33.1402 211.689 42.0563 213.276C50.9718 214.862 55.1729 211.257 60.3702 211.671C61.091 211.729 61.7102 211.82 62.3125 211.928C66.0538 212.604 69.1471 213.986 91.9089 212.575C118.336 210.936 132.823 210.518 142.831 210.125C152.839 209.732 173.736 211.577 190.046 210.911C200.054 210.502 216.406 210.574 230.636 210.439C235.922 210.312 240.518 215.208 240.153 220.389C239.831 230.929 234.677 239.5 230.65 244.14C225.027 250.563 220.375 252.089 216.673 252.947C212.863 253.664 209.429 253.743 203.494 253.074C203.135 253.019 202.764 252.965 202.379 252.912Z" fill="#5D5437"/>
<path d="M273.005 166.475C270.118 168.385 272.719 174.379 268.72 176.719C264.808 178.778 262.545 176.528 259.177 179.227C255.52 181.993 250.73 181.387 249.434 183.14C248.035 184.918 246.591 181.317 244.473 182.748C242.26 184.182 240.362 184.041 238.119 183.15C235.712 182.34 229.183 181.992 226.759 183.638C224.439 185.333 221.64 182.723 219.96 182.1C219.436 181.907 219.021 181.637 218.704 181.355C218.569 181.236 218.507 180.985 218.507 180.738C218.507 180.738 218.507 180.738 218.507 180.737C218.507 180.43 218.603 180.127 218.774 180.088C219.603 179.898 220.834 179.39 222.195 178.237C224.713 176.069 224.952 178.384 228.472 177.055C231.803 175.697 233.587 173.35 237.578 174.047C241.869 174.59 241.209 168.913 247.11 170.396C253.326 171.518 251.535 165.645 254.556 162.669C257.465 159.815 262.793 157.792 263.358 155.093C263.916 152.662 263.663 149.598 263.733 145.954C263.781 142.049 259.905 138.772 258.122 134.897C256.435 130.714 251.386 125.924 248.414 124.122C245.536 122.234 244.507 121.861 241.332 122.64C239.51 123.124 237.099 123.069 234.473 122.217C233.136 121.801 233.01 120.688 234.09 119.833C235.679 118.6 237.237 118.853 238.034 117.367C239.627 114.422 240.761 113.262 243.412 114.905C245.923 116.593 247.588 113.243 249.194 113.967C250.722 114.878 250.218 116.192 258.085 118.046C266.012 120.434 269.479 124.039 271.8 126.173C274.249 128.447 276.158 135.021 278.133 139.793C280.73 144.602 279.866 155.917 278.881 160.505C278.229 165.243 275.864 164.375 273.005 166.475Z" fill="#5D5437"/>
<path d="M84.8954 42.823C85.275 39.8473 78.9469 38.6461 79.5308 34.4298C80.2921 30.4502 83.4365 30.2516 83.3778 26.3182C83.4364 22.2385 86.8245 19.4671 86.28 17.5077C85.7829 15.4598 89.3516 16.9333 89.5917 14.5868C89.8787 12.2104 91.0535 11.2484 93.1376 10.3451C95.2039 9.36669 99.417 5.62472 99.689 3.0876C99.9389 0.468692 103.591 0.60653 105.019 0.158432C105.479 0.00133923 105.911 -0.0236762 106.289 0.0177194C106.448 0.035346 106.651 0.190245 106.815 0.374965C106.816 0.375085 106.816 0.375205 106.816 0.375325C107.02 0.605544 107.165 0.88103 107.091 0.999794C106.727 1.57896 106.324 2.63018 106.298 4.23415C106.301 7.20343 104.467 5.76589 103.394 8.65771C102.377 11.5686 103.151 14.0734 100.272 16.0005C97.3796 18.1392 102.113 21.3198 97.5472 23.8272C93.0231 26.8109 98.7233 29.1744 99.3026 32.1887C99.6397 33.7561 99.1693 35.3338 98.9446 37.0581C98.6985 38.7483 98.7704 40.5659 99.4489 41.3892C100.352 42.5021 101.727 43.6701 103.198 45.1122C104.315 46.2054 105.341 47.4235 106.223 48.8436C108.839 52.9996 114.323 57.8646 114.404 64.5829C114.779 71.188 111.185 79.2308 108.541 81.6675C105.984 84.2858 105.406 84.6542 104.087 87.6848C103.313 89.3985 101.168 91.1058 98.5763 91.206C97.2813 91.2419 96.833 90.213 97.2181 89.2167C97.7582 87.7621 98.8843 87.3196 98.3479 85.8889C97.2272 83.051 96.6043 82.178 98.7914 81.8306C101.018 81.3653 98.2361 78.8958 98.9436 78.4114C99.5575 77.916 101.987 78.5987 101.34 74.0533C100.334 69.7978 99.1671 68.2792 98.4265 67.0142C97.7195 65.9202 97.933 62.1479 95.5954 60.2847C94.5945 59.4757 93.3597 58.1112 91.8977 56.7768C89.3237 54.4158 87.0536 51.5171 85.4672 50.0355C82.5743 47.2404 84.6806 45.9694 84.8954 42.823Z" fill="#5D5437"/>
<path d="M127.482 43.0046C127.998 40.6951 121.728 40.5468 122.09 36.925C122.648 33.4543 125.744 33.1829 125.595 29.8006C125.612 26.1419 129.098 24.1843 128.678 22.4378C128.352 20.548 131.63 22.5859 131.996 20.6945C132.432 18.7647 133.602 18.2643 135.511 18.148C137.432 17.9565 141.26 16.2263 141.61 14.1236C141.97 11.9594 144.928 13.2263 146.1 13.2343C146.473 13.2314 146.824 13.33 147.132 13.4695C147.263 13.5288 147.427 13.7215 147.559 13.9307C147.559 13.9308 147.559 13.931 147.559 13.9311C147.723 14.1917 147.837 14.4775 147.773 14.5639C147.462 14.9831 147.104 15.8007 147.011 17.2006C146.877 19.7973 145.419 17.9889 144.373 20.0918C143.359 22.2153 143.921 24.5057 141.446 25.0231C138.874 25.7756 143.147 29.5355 139.255 29.7672C135.176 30.7253 140.911 33.1886 141.719 34.0994C142.126 34.6889 141.612 35.5276 141.323 36.8029C141.019 38.0444 140.919 39.5056 141.466 40.1517C142.279 41.1153 143.586 42.1926 144.695 43.7529C145.185 44.4109 145.597 45.0861 145.967 45.8662C147.462 49.0828 151.809 51.9302 152.151 56.9227C152.751 61.6918 150.704 69.1393 148.107 71.0614C145.775 73.1089 145.272 73.2082 144.059 75.55C143.331 76.8712 141.392 77.8052 139.311 77.1934C138.263 76.8866 137.927 75.828 138.243 75.0407C138.688 73.8922 139.618 73.8397 139.149 72.4757C138.164 69.7647 137.465 68.9953 139.211 69.4347C140.096 69.6255 139.912 69.0167 139.494 68.4696C139.084 67.9086 138.46 67.3914 138.716 67.3523C138.973 67.3063 139.584 67.5138 140.049 67.3752C140.497 67.2576 140.865 66.6729 140.115 65.5576C138.529 63.4805 137.49 62.4555 136.742 61.6298C136.026 60.9112 136.403 57.8053 134.536 56.41C133.864 55.9136 133.126 55.0677 132.292 54.1478C130.473 52.1293 128.731 49.6173 127.319 48.5262C125.011 46.6742 127.093 45.4615 127.482 43.0046Z" fill="#5D5437"/>
</svg>
